<svg width="1920" height="1031" viewBox="0 0 1920 1031" fill="none" xmlns="http://www.w3.org/2000/svg">
  <mask id="mask0_3_2" style="mask-type:luminance" maskUnits="userSpaceOnUse" x="268" y="246" width="926" height="784">
    <path d="M268 246.667H1193.33V1030H268V246.667Z" fill="white"/>
  </mask>
  <g mask="url(#mask0_3_2)">
    <mask id="mask1_3_2" style="mask-type:luminance" maskUnits="userSpaceOnUse" x="268" y="247" width="925" height="903">
      <path d="M914.854 1149.92C1035.7 1144.47 1124.94 1098.58 1166.47 1043.97C884.583 1022.9 604.021 928.089 438.13 689.422C407.25 646.797 383.276 599.818 361.24 552.349C407.859 645.469 471.063 730.833 551.589 797.313C729.344 945.161 960.625 996.984 1188.76 999.891C1189.96 995.292 1190.93 990.568 1191.42 985.969C1207.89 846.474 1089.46 760.62 857.698 685.911C645.552 617.615 347.193 485.75 322.37 247.573C287.74 326.641 268.484 413.823 268.484 505.609C268.484 861.365 556.917 1149.8 912.672 1149.8C913.401 1149.8 914.125 1149.8 914.854 1149.8V1149.92Z" fill="white"/>
    </mask>
    <g mask="url(#mask1_3_2)">
      <path d="M268.484 247.573V1030H1207.89V247.573H268.484Z" fill="#666666" fill-opacity="0.1"/>
    </g>
  </g>
  <mask id="mask2_3_2" style="mask-type:luminance" maskUnits="userSpaceOnUse" x="640" y="0" width="918" height="778">
    <path d="M640 0H1557.33V777.333H640V0Z" fill="white"/>
  </mask>
  <g mask="url(#mask2_3_2)">
    <mask id="mask3_3_2" style="mask-type:luminance" maskUnits="userSpaceOnUse" x="640" y="-139" width="917" height="917">
      <path d="M662.141 -2.47916C948.151 16.776 1234.29 110.74 1402.6 352.917C1433.47 395.542 1457.45 442.521 1479.49 489.99C1432.87 396.87 1369.66 311.505 1289.14 245.026C1109.44 95.6042 875.016 44.1406 644.344 42.3281C643.25 47.4115 642.281 52.4948 641.677 57.4635C627.755 180.609 710.698 277.724 1015.35 351.224C1320.02 424.724 1466.29 574.026 1492.81 723.688C1495.83 741.125 1497.29 759.047 1496.93 777.333C1535.31 694.75 1556.98 602.844 1556.98 505.729C1556.98 153.484 1274.36 -132.526 923.453 -138.219C793.401 -132.161 701.375 -71.8594 662.141 -2.47916Z" fill="white"/>
    </mask>
    <g mask="url(#mask3_3_2)">
      <path d="M627.755 0V777.333H1556.98V0H627.755Z" fill="#666666" fill-opacity="0.1"/>
    </g>
  </g>
  <mask id="mask4_3_2" style="mask-type:luminance" maskUnits="userSpaceOnUse" x="157" y="0" width="1106" height="351">
    <path d="M157.448 0H1262.67V350.667H157.448V0Z" fill="white"/>
  </mask>
  <g mask="url(#mask4_3_2)">
    <mask id="mask5_3_2" style="mask-type:luminance" maskUnits="userSpaceOnUse" x="157" y="-313" width="1105" height="664">
      <path d="M594.089 -160.979C809.266 -262.214 1047.44 -254.219 1245.06 -159.406C1258.14 -153.109 1268.31 -171.76 1256.32 -179.75C1041.87 -322.026 779.599 -357.75 551.953 -250.589C324.307 -143.547 184.568 81.4376 157.448 337.177C155.87 351.583 176.823 355.583 180.213 341.537C233.37 128.906 378.917 -59.75 594.089 -160.979Z" fill="white"/>
    </mask>
    <g mask="url(#mask5_3_2)">
      <path d="M157.448 0V355.583H1268.31V0H157.448Z" fill="#666666" fill-opacity="0.1"/>
    </g>
  </g>
  <mask id="mask6_3_2" style="mask-type:luminance" maskUnits="userSpaceOnUse" x="562" y="678" width="1106" height="352">
    <path d="M562.667 678.667H1668V1030H562.667V678.667Z" fill="white"/>
  </mask>
  <g mask="url(#mask6_3_2)">
    <mask id="mask7_3_2" style="mask-type:luminance" maskUnits="userSpaceOnUse" x="562" y="679" width="1105" height="664">
      <path d="M1644.05 688.453C1591.13 901.083 1445.46 1089.74 1230.29 1190.97C1015.11 1292.2 776.932 1284.21 579.318 1189.4C566.24 1183.1 556.068 1201.74 568.057 1209.74C782.385 1351.9 1044.78 1387.74 1272.43 1280.57C1500.07 1173.41 1639.69 948.552 1666.81 692.693C1668.39 678.281 1647.44 674.286 1644.05 688.333V688.453Z" fill="white"/>
    </mask>
    <g mask="url(#mask7_3_2)">
      <path d="M556.068 674.286V1030H1668.39V674.286H556.068Z" fill="#666666" fill-opacity="0.1"/>
    </g>
  </g>
</svg>